<svg height="584.23" width="1074.39" xmlns="http://www.w3.org/2000/svg"><ellipse cx="540.64" cy="549.31" fill="#f2f2f2" rx="527.5" ry="34.92"/><path d="M520.43 167.01c-85.95 0-147.66 55.14-147.66 183.8 0 145.81 61.71 184.4 147.66 184.4s151.32-42.27 151.32-184.4c0-151.94-65.38-183.8-151.32-183.8zm.56 319.8c-59.53 0-90.63-34.91-90.63-135.9 0-89.12 32.38-136.11 91.9-136.11s91.9 30.86 91.9 136.1c0 98.45-33.64 135.92-93.17 135.92z" fill="#2f2e41"/><path d="M321.31 433.52h-35.53V328.88a20.96 20.96 0 00-20.96-20.96h-8.33a20.96 20.96 0 00-20.95 20.96v104.64H135.3a11.96 11.96 0 01-10.58-17.56l106.08-200.78a20.96 20.96 0 00-9.58-28.73l-6.26-2.96a20.96 20.96 0 00-27.43 9.07L58.16 434.59A28.42 28.42 0 0054.8 448a28.42 28.42 0 0028.42 28.41h152.32v66.17a25.12 25.12 0 0025.12 25.12 25.12 25.12 0 0025.12-25.12V476.4h35.53a21.44 21.44 0 0021.44-21.44 21.44 21.44 0 00-21.44-21.44zM979.3 433.52h-35.53V328.88a20.96 20.96 0 00-20.95-20.96h-8.33a20.96 20.96 0 00-20.95 20.96v104.64H793.3a11.96 11.96 0 01-10.58-17.56L888.8 215.18a20.96 20.96 0 00-9.58-28.73l-6.26-2.96a20.96 20.96 0 00-27.43 9.07L716.16 434.59a28.42 28.42 0 00-3.36 13.4 28.42 28.42 0 0028.42 28.41h152.32v66.17a25.12 25.12 0 0025.11 25.12 25.12 25.12 0 0025.12-25.12V476.4h35.54a21.44 21.44 0 0021.44-21.44 21.44 21.44 0 00-21.44-21.44z" fill="#4299e1"/><path d="M331.11 421.26h-35.53V316.62a20.96 20.96 0 00-20.96-20.95h-8.32a20.96 20.96 0 00-20.96 20.95v104.64H145.11a11.96 11.96 0 01-10.58-17.55l106.09-200.78a20.96 20.96 0 00-9.58-28.74l-6.27-2.95a20.96 20.96 0 00-27.43 9.07L67.96 422.34a28.42 28.42 0 00-3.35 13.4 28.42 28.42 0 0028.41 28.41h152.32v66.17a25.12 25.12 0 0025.12 25.12h0a25.12 25.12 0 0025.12-25.12v-66.17h35.53a21.44 21.44 0 0021.45-21.44 21.44 21.44 0 00-21.45-21.45zM997.69 421.26h-35.54V316.62a20.96 20.96 0 00-20.95-20.95h-8.33a20.96 20.96 0 00-20.95 20.95v104.64H811.69a11.96 11.96 0 01-10.58-17.55l106.08-200.78a20.96 20.96 0 00-9.58-28.74l-6.26-2.95a20.96 20.96 0 00-27.43 9.07L734.54 422.34a28.42 28.42 0 00-3.36 13.4 28.42 28.42 0 0028.42 28.41h152.32v66.17a25.12 25.12 0 0025.11 25.12 25.12 25.12 0 0025.12-25.12v-66.17h35.54a21.44 21.44 0 0021.44-21.44 21.44 21.44 0 00-21.44-21.45zM540.03 155.98c-85.94 0-147.65 55.14-147.65 183.8 0 145.81 61.7 184.41 147.65 184.41s151.33-42.27 151.33-184.41c0-151.94-65.39-183.8-151.33-183.8zm.57 319.81c-59.53 0-90.63-34.92-90.63-135.92 0-89.1 32.37-136.1 91.9-136.1s91.9 30.87 91.9 136.1c0 98.45-33.65 135.92-93.17 135.92z" fill="none" stroke="#3f3d56" stroke-miterlimit="10"/><circle cx="471.14" cy="18.25" fill="#2f2e41" r="12.9"/><ellipse cx="502.61" cy="46.88" fill="#2f2e41" rx="36.19" ry="46.88"/><path d="M502.6 79.61c-18.12 0-33.13-17.27-35.77-39.8a60.98 60.98 0 00-.4 7.07c0 25.9 16.2 46.89 36.18 46.89s36.18-21 36.18-46.89a60.98 60.98 0 00-.4-7.08c-2.64 22.54-17.65 39.81-35.78 39.81z" opacity=".1"/><path d="M576.24 184.19c-.77 3.2-4.13 5.75-7.84 7.54-7.8 3.75-17.42 4.87-26.76 5.25a45.18 45.18 0 01-7.14-.13 20.54 20.54 0 01-12.25-5.63 1.68 1.68 0 01.04-2.85c4.97-5.46 13.26-8.8 21.62-11.21 6.33-1.83 17.38-6.56 24.29-5.92 6.69.61 9.02 8.92 8.04 12.95z" fill="#3f3d56"/><path d="M576.24 184.19c-.77 3.2-4.13 5.75-7.84 7.54-7.8 3.75-17.42 4.87-26.76 5.25a45.18 45.18 0 01-7.14-.13 20.54 20.54 0 01-12.25-5.63 1.68 1.68 0 01.04-2.85c4.97-5.46 13.26-8.8 21.62-11.21 6.33-1.83 17.38-6.56 24.29-5.92 6.69.61 9.02 8.92 8.04 12.95z" opacity=".1"/><path d="M477.04 160.32a19.77 19.77 0 00-1.2 15.08 26.34 26.34 0 008.83 12.5c10.1 8.08 24 9.2 36.93 9.09a284.65 284.65 0 0033.9-2.33 40.54 40.54 0 0011-2.55c4.23-1.83 7.94-5.18 9.44-9.53s.44-9.67-3.13-12.57c-3.14-2.55-7.46-2.9-11.5-3.15l-23.09-1.38c2.28-2.31 5.32-3.62 8.1-5.3 3.68-2.22 6.13-5.96 8.81-9.33a129 129 0 0113.44-13.82c.75 4.31 3.48 7.85 6.69 10.83s6.9 5.37 10.24 8.2c8.08 6.86 13.9 16.16 22.4 22.5a43.83 43.83 0 0016.04-8.01l-3.3-5.99a3.94 3.94 0 00-1.24-1.55c-.94-.57-2.14-.28-3.23-.44-2.9-.43-4.17-3.78-5.3-6.49-3.13-7.42-9.11-13.18-14.22-19.4a98 98 0 01-10-14.72c-1.72-3.1-3.29-6.34-5.62-9s-5.59-4.78-9.14-4.79c-3.13 0-6.02 1.59-8.7 3.19a230.48 230.48 0 00-23.64 16.1c-3.94 3.06-7.86 6.3-12.49 8.17-1.95.79-4 1.33-5.87 2.29-3.27 1.68-5.76 4.53-8.43 7.06-9.54 9.03-22.6 14.87-35.72 15.34z" fill="#3f3d56"/><path d="M525.32 96.1a23.77 23.77 0 01-1.73 8.03 10.04 10.04 0 01-5.77 5.57 12.38 12.38 0 01-5.62.19 10.88 10.88 0 01-4.59-1.56c-2.16-1.5-3.24-4.15-3.63-6.75-.4-2.6-.22-5.25-.47-7.86a42.94 42.94 0 00-1.2-6.26l-.52-2.04-.48-2.04a44.29 44.29 0 01-.61-3.57 18.42 18.42 0 00-.8-4.8 14.6 14.6 0 00-1.7-2.86c-.28-.41-.56-.82-.81-1.24a5.89 5.89 0 01-.98-3.75 3.29 3.29 0 01.15-.6l.09-.23a1.8 1.8 0 001.23-1.14 3.43 3.43 0 00-.15-1.78 11.32 11.32 0 00-.96-2.29c-.26-.48-1.16-1.34-1.17-1.89-.01-1.1 2.14-1.99 3.01-2.42a16.8 16.8 0 018.6-1.74c1.9.12 3.97.71 5.02 2.3.94 1.44.82 3.3 1.22 4.98a1.47 1.47 0 00.3.66 1.34 1.34 0 00.74.34 4.55 4.55 0 001.42.06 2.93 2.93 0 00.37-.06 4.96 4.96 0 002.03-.87q.59-.16 1.18-.26a.25.25 0 00.05 0c1.58 4.97 1.78 10.3 3.07 15.37.64 2.52 1.55 5 1.68 7.6l.02.34c.02.84-.05 1.68-.01 2.5a6.98 6.98 0 00.12 1.12 15.61 15.61 0 00.53 1.75v.02a8.6 8.6 0 01.26.96v.01a14.94 14.94 0 01.11 4.2z" fill="#fbbebe"/><circle cx="503.24" cy="45" fill="#fbbebe" r="18.57"/><path d="M621.1 146.15a30.45 30.45 0 00-5.23-14.1l1.44 8.58a3.21 3.21 0 01-3.36-1.03 10.34 10.34 0 01-1.77-3.28 67.47 67.47 0 00-8.2-14.73c-11.83-.99-23.5-5.89-33.9-11.6-10.4-5.7-20.13-12.55-30.39-18.5a43.57 43.57 0 00-5.54-2.83c-3.21-1.3-6.81-1.96-9.86-3.47-.2-.1-.4-.2-.6-.32a12.58 12.58 0 01-1.95-1.3 10.34 10.34 0 01-.93-.86 20.35 20.35 0 01-3.56-5.95c-1.63-3.62-2.22-7.97-3.85-11.59a11.2 11.2 0 012.5-1.76l.4-.2a11.94 11.94 0 012.01-.73q.59-.16 1.18-.26a.25.25 0 00.05 0 11.57 11.57 0 015.49.43c2.59.87 4.77 2.62 6.94 4.27a114.02 114.02 0 0110.15 8.05c1.8 1.72 3.43 3.6 5.36 5.17a42.14 42.14 0 005.05 3.35l31.32 18.65c3.53 2.1 7.07 4.2 10.53 6.43 5.24 3.39 10.3 7.06 15.36 10.72l8.94 6.48a9.73 9.73 0 012.53 2.34 8.47 8.47 0 011.12 3.44 31.39 31.39 0 01-1.23 14.6z" fill="#fbbebe"/><path d="M529.92 110.06c-1.25 5.62-6.93 9.01-9.9 13.95-3.68 6.12-2.18 13.24-.8 20.25l-7.58 6.54c-1.4 1.2-2.8 2.4-4.3 3.47a57.35 57.35 0 01-6.86 3.94l-6.72 3.45a32.13 32.13 0 01-6.58 2.8c-4.42 1.13-9.1.33-13.47-.98a6.09 6.09 0 01-1.48-.6 2.4 2.4 0 01-.7-.63 3.91 3.91 0 01-.44-2.54c.44-7.35 2.24-14.55 4.03-21.7a85.26 85.26 0 013.85-12.57 85.08 85.08 0 015.42-10.15 68.37 68.37 0 017.92-11.51 18.48 18.48 0 003.68-4.74c1.12-2.55.69-5.48.91-8.25a17.15 17.15 0 011.64-6v-.01a17.1 17.1 0 011.74-2.88l.91 2.13.6 1.4.77 1.78 2.2 5.11a21.59 21.59 0 003.33 5.95 6.5 6.5 0 0011.13-.86 21.26 21.26 0 002.27-6.01 19.22 19.22 0 00.25-7.83c-.76-5.01-2.89-10.13-4.44-14.78a14.95 14.95 0 01-1.08-4.88 3.35 3.35 0 01.06-.56l.03-.14a11.94 11.94 0 012-.73q.59-.16 1.18-.26l4.1 22.13.1.52c.19 1.06.39 2.12.6 3.17.2.96.42 1.91.66 2.86v.02l.26.96v.01c.25.87.52 1.73.82 2.58 1.85 5.12 5.08 10.27 3.9 15.59z" fill="#4299e1"/><path d="M605.27 189a6.58 6.58 0 00.6 3.14c1.17 2.12 3.96 2.6 6.37 2.8a188.38 188.38 0 0042.27-1.29 4.89 4.89 0 002.15-.66c1.99-1.4.76-4.8-1.41-5.89s-4.75-.82-7.14-1.3a22.48 22.48 0 01-6.68-2.9q-7.25-4.16-14.29-8.68c-2.8-1.8-6.1-3.71-9.24-2.65-8.52 2.89-12.69 8.23-12.63 17.42z" fill="#3f3d56"/><path d="M501.38 82.99l-.07.4a77.7 77.7 0 01-1.54 6.6 184.87 184.87 0 01-5.54 16.12l-16.16 42.58c-1.36 3.58-2.72 7.15-4.26 10.66l-1.58 3.53c-1.9 4.26-3.71 8.65-4.31 13.18a27.45 27.45 0 00-.2 9.04c.6 2.97 2.41 5.88 5.23 6.97 1.38.54 3.35 1.26 2.98 2.7-.2.78-1.1 1.16-1.9 1.3a7.31 7.31 0 01-5.97-1.72c-1.5-1.34-2.66-3.42-4.67-3.64-1.39-.15-2.66.68-3.94 1.26-5.18 2.37-11.22.71-16.67-.97.43-2.2 2.64-3.66 4.84-4.1 2.2-.45 4.48-.13 6.72-.2a3.51 3.51 0 002.04-.52 3.7 3.7 0 001.1-1.88 78.96 78.96 0 003.22-13.15c.72-4.66 1.02-9.4 2.06-14.01.8-3.6 2.04-7.08 3.1-10.61a224.68 224.68 0 005.06-22.08 78.02 78.02 0 001.43-9.37c.18-2.6.1-5.23.34-7.83a60.89 60.89 0 012.11-10l2.89-10.69c1.42-5.27 2.95-10.75 6.57-14.84a13.96 13.96 0 0110.02-4.8 9.88 9.88 0 012.13.24l.35.09a8.63 8.63 0 012.18.9c1.11-.71 1.68-.46 2.42.63a6.97 6.97 0 01.88 3.8 52.42 52.42 0 01-.86 10.4z" fill="#fbbebe"/><path d="M502.6 87.16l-.04.05-.25.25-2.53 2.53-1.24-5.2-4.26-17.86a9.88 9.88 0 012.13.23 3.29 3.29 0 01.15-.6l.2.69 1.45 4.9 2.72 9.3.45 1.54z" fill="#4299e1"/><path d="M518.66 30.2a12.58 12.58 0 01-3.7 8.9 12.31 12.31 0 01-1.36 1.17 12.53 12.53 0 01-7.54 2.53h-15.1a12.59 12.59 0 010-25.18h15.1a12.63 12.63 0 0112.6 12.58z" fill="#2f2e41"/><circle cx="532.81" cy="18.25" fill="#2f2e41" r="12.9"/><path d="M532.5 5.35l-.47.01a12.9 12.9 0 010 25.78l.47.01a12.9 12.9 0 100-25.8zM471.14 5.35l.47.01a12.9 12.9 0 000 25.78l-.47.01a12.9 12.9 0 010-25.8zM513.6 40.27a12.53 12.53 0 01-7.54 2.53h-15.1a12.53 12.53 0 01-7.53-2.53z" opacity=".1"/><path d="M611.09 133.76s3.25 9.37 6.22 6.87l-2.37-12.25z" fill="#fbbebe"/><path d="M1006.86 419.55a20.81 20.81 0 102.78-39.92l.52 10.72-5.07-9.18a20.73 20.73 0 00-10.69 11.72 20.4 20.4 0 00-1.2 5.63 20.8 20.8 0 0013.66 21.03z" fill="#57b894"/><path d="M1031.94 543.8c-1.79-9.12 5.96-17.2 13.62-22.44s16.6-10.41 19.22-19.32c3.75-12.8-7.43-24.53-16.14-34.64a125.3 125.3 0 01-16.52-24.56c-1.81-3.53-3.48-7.22-3.95-11.17-.69-5.67 1.14-11.32 2.97-16.73q9.18-27.05 19.63-53.65" fill="none" stroke="#3f3d56" stroke-miterlimit="10"/><path d="M1007.72 416.8a20.81 20.81 0 102.77-39.92l.52 10.7-5.06-9.17a20.73 20.73 0 00-10.69 11.72 20.4 20.4 0 00-1.2 5.63 20.8 20.8 0 0013.66 21.03z" fill="none" stroke="#3f3d56" stroke-miterlimit="10"/><path d="M1029.4 357.59a20.79 20.79 0 0114.98-13.2l1.71 10.18 3.18-10.7a20.81 20.81 0 11-19.87 13.72z" fill="#57b894"/><path d="M1030.54 353.91a20.79 20.79 0 0114.98-13.2l1.71 10.19 3.18-10.7a20.81 20.81 0 11-19.87 13.71z" fill="none" stroke="#3f3d56" stroke-miterlimit="10"/><path d="M1045 467.6a20.81 20.81 0 0018.41-37.02l-2.44 8.22-1.73-10.3a.36.36 0 00-.06-.02A20.81 20.81 0 101045 467.6z" fill="#57b894"/><path d="M1045.98 463.88a20.81 20.81 0 0018.42-37.02l-2.44 8.22-1.73-10.3a.36.36 0 00-.06-.03 20.81 20.81 0 10-14.19 39.13z" fill="none" stroke="#3f3d56" stroke-miterlimit="10"/><path d="M1023.32 502.17a20.8 20.8 0 104.01-16.3l9.28 13.96-12.67-7.41a20.62 20.62 0 00-.62 9.75z" fill="#57b894"/><path d="M1024.18 499.4a20.8 20.8 0 104.01-16.29l9.27 13.96-12.67-7.4a20.62 20.62 0 00-.6 9.74z" fill="none" stroke="#3f3d56" stroke-miterlimit="10"/><path d="M9 470.25a13.67 13.67 0 101.83-26.23l.34 7.04-3.33-6.03a13.62 13.62 0 00-7.02 7.7 13.4 13.4 0 00-.79 3.7 13.67 13.67 0 008.98 13.82z" fill="#57b894"/><path d="M25.48 551.88c-1.17-5.99 3.92-11.3 8.95-14.74s10.91-6.84 12.63-12.7c2.47-8.4-4.88-16.11-10.6-22.75a82.32 82.32 0 01-10.86-16.14 22.21 22.21 0 01-2.6-7.34c-.45-3.72.75-7.43 1.96-11q6.03-17.76 12.9-35.24" fill="none" stroke="#3f3d56" stroke-miterlimit="10"/><path d="M9.57 468.44a13.67 13.67 0 101.82-26.23l.34 7.04-3.33-6.03a13.62 13.62 0 00-7.02 7.7 13.4 13.4 0 00-.78 3.7 13.67 13.67 0 008.97 13.82z" fill="none" stroke="#3f3d56" stroke-miterlimit="10"/><path d="M23.81 429.54a13.66 13.66 0 019.84-8.67l1.13 6.69 2.09-7.03a13.67 13.67 0 11-13.06 9z" fill="#57b894"/><path d="M24.56 427.12a13.66 13.66 0 019.85-8.67l1.12 6.7 2.09-7.03a13.67 13.67 0 11-13.06 9z" fill="none" stroke="#3f3d56" stroke-miterlimit="10"/><path d="M34.06 501.82a13.67 13.67 0 0012.1-24.32l-1.6 5.4-1.14-6.77a.24.24 0 00-.04-.02 13.67 13.67 0 10-9.32 25.71z" fill="#57b894"/><path d="M34.7 499.37a13.67 13.67 0 0012.11-24.32l-1.6 5.4-1.14-6.77a.24.24 0 00-.04-.01 13.67 13.67 0 10-9.32 25.7z" fill="none" stroke="#3f3d56" stroke-miterlimit="10"/><path d="M19.82 524.53a13.67 13.67 0 102.64-10.7l6.09 9.16-8.33-4.87a13.55 13.55 0 00-.4 6.41z" fill="#57b894"/><path d="M20.39 522.72A13.67 13.67 0 1023.02 512l6.1 9.17-8.33-4.87a13.55 13.55 0 00-.4 6.4z" fill="none" stroke="#3f3d56" stroke-miterlimit="10"/><ellipse cx="480.95" cy="319.12" fill="#2f2e41" rx="17" ry="22"/><ellipse cx="573.45" cy="319.62" fill="#2f2e41" rx="17" ry="22"/><path d="M560.45 384.62c0 9.94-13.88 18-31 18s-31-8.06-31-18c0-8.61 10.4-15.81 24.32-17.57a50.1 50.1 0 016.68-.43 50.7 50.7 0 0111.13 1.2c11.62 2.59 19.87 9.14 19.87 16.8z" fill="#2f2e41"/><ellipse cx="484.95" cy="314.12" fill="none" rx="17" ry="22" stroke="#3f3d56" stroke-miterlimit="10"/><ellipse cx="577.45" cy="314.62" fill="none" rx="17" ry="22" stroke="#3f3d56" stroke-miterlimit="10"/><ellipse cx="533.45" cy="379.62" fill="none" rx="31" ry="18" stroke="#3f3d56" stroke-miterlimit="10"/><path d="M540.95 369.32a4.94 4.94 0 01-1.32 3.39 4.34 4.34 0 01-3.18 1.4h-10a4.66 4.66 0 01-4.5-4.8 4.9 4.9 0 01.82-2.74 47.02 47.02 0 016.68-.45 47.66 47.66 0 0111.13 1.28 5.07 5.07 0 01.37 1.92z" fill="#fff"/><circle cx="484.95" cy="308.12" fill="#fff" r="5"/><circle cx="577.95" cy="308.12" fill="#fff" r="5"/><circle cx="582.95" cy="355.12" fill="#4299e1" opacity=".3" r="5"/><circle cx="460.95" cy="355.12" fill="#4299e1" opacity=".3" r="5"/></svg>