<svg width="296" height="312" fill="none" xmlns="http://www.w3.org/2000/svg"><mask id="a" maskUnits="userSpaceOnUse" x="0" y="0" width="296" height="312"><path fill="#C4C4C4" d="M0 0h296v312H0z"/></mask><g mask="url(#a)"><path d="M95.531 38.941c6.118-5.445 14.04-9.01 23.768-10.697 9.727-1.687 20.01-.616 30.847 3.212 10.802 3.827 20.683 10.74 29.641 20.739 8.329 9.3 13.957 19.04 16.885 29.221a53.607 53.607 0 01.774 29.012 46.027 46.027 0 01-14.028 22.903 39.783 39.783 0 01-17.291 9.504 58.471 58.471 0 01-17.685 1.626c-5.707-.367-15.61-1.342-29.707-2.924a93.975 93.975 0 00-9.937-.55 28.278 28.278 0 00-6.752.773 26.839 26.839 0 00-5.086 1.862c-1.573.773-4.234 2.202-8.01 4.313-7.761 4.746-14.508 3.915-20.241-2.491a15.735 15.735 0 01-4.261-11.34c.149-4.221 2.368-8.254 6.66-12.1a45.683 45.683 0 0132.551-12.69c6.89.23 13.764.807 20.595 1.73 7.263.879 12.625 1.429 16.086 1.613a36.824 36.824 0 0010.239-.852 19.672 19.672 0 008.98-4.654 22.848 22.848 0 007.865-17.344c.105-6.992-2.517-13.49-7.865-19.494-6.319-7.053-12.747-10.65-19.285-10.79-6.537-.14-14.32 1.74-23.348 5.637-9.186 4.31-16.505 3.435-21.959-2.621a16.347 16.347 0 01-4.339-12.48 15.732 15.732 0 014.903-11.118zM32.159 180.12a20.294 20.294 0 01-5.362-13.647c-.079-5.174 2.154-9.802 6.699-13.883a18.422 18.422 0 0113.988-4.838 19.183 19.183 0 0113.424 6.686 18.945 18.945 0 014.996 13.895 18.934 18.934 0 01-6.503 13.256c-4.484 4.011-9.29 5.724-14.42 5.139a19.665 19.665 0 01-12.822-6.608z" fill="#4299E1"/><path opacity=".5" d="M212.757 126.841a24.913 24.913 0 018.797-10.828 32.585 32.585 0 0115.548-5.873 38.803 38.803 0 0119.179 2.805 40.325 40.325 0 0115.103 9.898 28.756 28.756 0 017.341 13.7 24.705 24.705 0 01-1.18 14.42 21.275 21.275 0 01-6.004 8.705 31.31 31.31 0 01-8.076 5.034c-2.814 1.198-7.791 3.112-14.931 5.742a45.938 45.938 0 00-4.89 2.124 14.693 14.693 0 00-3.042 1.993 13.672 13.672 0 00-1.992 2.11c-.564.748-1.495 2.072-2.793 3.933-2.622 4.143-6.052 5.366-10.291 3.671a8.469 8.469 0 01-4.772-4.405 9.166 9.166 0 01.289-7.394 24.488 24.488 0 0112.532-13.896c3.35-1.56 6.776-2.952 10.265-4.169 3.684-1.311 6.385-2.347 8.089-3.081 1.691-.733 3.27-1.7 4.693-2.871a10.603 10.603 0 003.186-4.391 12.188 12.188 0 00-.407-10.187 15.006 15.006 0 00-8.429-7.367c-4.72-1.862-8.652-2.041-11.799-.538a30.442 30.442 0 00-9.806 8.286c-3.373 4.273-7.096 5.584-11.169 3.932a8.787 8.787 0 01-5.074-4.942 8.317 8.317 0 01-.367-6.411zm3.579 82.854a10.898 10.898 0 01-5.847-5.244 9.604 9.604 0 01-.157-8.194 9.807 9.807 0 015.519-5.703 10.237 10.237 0 018.036 0 10.134 10.134 0 013.418 2.145 10.138 10.138 0 012.39 11.214 9.636 9.636 0 01-5.69 5.926c-2.483.922-5.222.87-7.669-.144z" fill="#4299E1"/><path d="M94.112 229.726S75.97 315.948 71.144 344.174C65.9 375.086 54.377 463.59 54.377 463.59l16.846 6.122s26.364-93.852 30.362-123.572c8.377-29.051 29.602-116.414 29.602-116.414H94.112z" fill="#4299E1"/><path opacity=".3" d="M117.408 257.873c-5.886 14.132-8.023 39.866-7 55.257 4.667-18.17 9.845-38.923 13.857-55.179-1.298-4.47-3.081-9.163-6.857-.078z" fill="#000"/><path d="M108.153 155.879a143.894 143.894 0 01-2.622 5.952c-.905 1.94-1.875 3.841-2.858 5.742-1.993 3.789-4.09 7.525-6.398 11.17a102.653 102.653 0 01-16.518 20.674l-.236.236a5.572 5.572 0 01-1.1.773 9.17 9.17 0 01-3.527 1.062c-.707.05-1.417.05-2.124 0a21.944 21.944 0 01-3.146-.433c-1.862-.393-3.514-.878-5.14-1.389-3.224-1.023-6.227-2.268-9.176-3.527a128.546 128.546 0 01-8.718-4.103c-2.858-1.482-5.664-2.963-8.443-4.641a3.174 3.174 0 01.207-5.531 3.171 3.171 0 012.18-.263c6.082 1.468 12.152 3.107 18.13 4.562a163.69 163.69 0 008.81 1.953 36.63 36.63 0 004.077.59c.515.03 1.031.03 1.547 0h.222c-.465.013-.919.153-1.31.406l-1.312 1.01a87.53 87.53 0 007.04-8.889c2.203-3.185 4.287-6.554 6.293-9.937 2.006-3.382 3.933-6.935 5.755-10.487a361.204 361.204 0 005.244-10.632l.079-.171a7.174 7.174 0 0113.109 5.834l-.065.039z" fill="#FFC3BD"/><path d="M106.134 142.009c-8.443.236-14.237 9.4-19.77 20.819a48.76 48.76 0 0017.633 17.698s22.181-39.08 2.137-38.517z" fill="#E0E0E0"/><path d="M37.728 187.448l-7.604-1.941 5.926-7.616s6.555 1.035 9.045 6.554l-2.7 1.928a5.774 5.774 0 01-2.217 1.046 5.77 5.77 0 01-2.45.029zM28.276 177.72l1.468-1.311a3.392 3.392 0 014.366-.091l1.94 1.56-5.926 7.616-2.425-3.775a3.081 3.081 0 01.577-3.999z" fill="#FFC3BD"/><path d="M114.381 229.726s2.294 86.682 3.933 115.248c1.835 31.279 17.37 123.952 17.37 123.952h19.009s-4.169-93.853-7.315-124.542c1.311-33.614 2.176-114.684 2.176-114.684l-35.173.026z" fill="#4299E1"/><path d="M98.478 148.682a9.951 9.951 0 017.656-6.673 63.709 63.709 0 017.774-1.311c7.86-.433 15.738-.433 23.598 0 4.116.184 8.311.669 11.654 1.141h.118a6.38 6.38 0 014.361 2.506 6.378 6.378 0 011.185 4.888 302.54 302.54 0 00-5.126 40.469c-.813 19.744.288 35.239-.105 39.998h-55.48c-3.37-48.152.983-70.045 4.365-81.018z" fill="#E0E0E0"/><path d="M141.267 111.32a6.893 6.893 0 01-1.036 11.798c2.242 3.71-3.723 10.265-9.727 6.149-6.004-4.117 2.478-21.448 10.763-17.947zM116.439 107.334a4.747 4.747 0 01-4.154-2.2 4.76 4.76 0 01-.238-4.696c-2.792-1.088-2.294-7.184 2.74-7.446 5.035-.262 7.63 12.808 1.652 14.342z" fill="#263238"/><path d="M114.8 145.851a2.938 2.938 0 011.035-4.943c5.061-1.861 5.978-5.532 5.572-9.531-.116-1.124-.3-2.24-.551-3.342l8.587-6.857 6.319-5.034c-1.573 6.555-3.33 17.973 0 23.755a2.973 2.973 0 01-.603 3.828c-2.176 1.927-6.633 4.418-13.975 4.024-3.369-.17-5.244-.943-6.384-1.9z" fill="#FFC3BD"/><path d="M95.632 148.918a11.548 11.548 0 018.404-7.63 70.883 70.883 0 017.512-.786 1.59 1.59 0 011.426.525 1.593 1.593 0 01.343 1.48c-4.391 16.309-10.658 48.939-8.717 89.356a1.858 1.858 0 01-.532 1.364 1.85 1.85 0 01-1.356.55H91.7a1.878 1.878 0 01-1.901-1.731c-3.317-49.384 2.543-73.991 5.833-83.128zM148.858 140.856a104.02 104.02 0 00-10.632-.97 2.74 2.74 0 00-2.858 2.071c-4.077 17.96-7.709 57.866-7.866 89.972a1.858 1.858 0 001.901 1.822h19.664a1.862 1.862 0 001.901-1.783c.131-6.463-.76-21.605 0-40.404a281.9 281.9 0 015.034-39.88c.682-3.683-3.251-10.278-7.144-10.828z" fill="#263238"/><path d="M155.767 146.558a252.917 252.917 0 0111.654 19.376c1.783 3.343 3.54 6.739 5.126 10.305.787 1.783 1.56 3.605 2.281 5.532a38.954 38.954 0 011.836 6.424c.323 1.596.394 3.232.209 4.85a20.947 20.947 0 01-1.009 3.841 38.76 38.76 0 01-2.74 5.874 89.917 89.917 0 01-6.437 9.806 159.524 159.524 0 01-14.84 17.121 3.569 3.569 0 01-4.735.279 3.565 3.565 0 01-.823-4.671v-.079c3.815-6.148 7.669-12.414 11.156-18.628 1.73-3.094 3.382-6.241 4.706-9.282 1.324-3.042 2.295-6.371 1.613-6.463a33.635 33.635 0 00-1.521-4.09 84.637 84.637 0 00-2.189-4.576c-1.6-3.08-3.317-6.214-5.113-9.294-3.592-6.188-7.42-12.428-11.209-18.472v-.079a7.165 7.165 0 0112.035-7.774z" fill="#FFC3BD"/><path d="M147.614 140.685c8.443-.157 12.913 6.988 18.445 18.354-6.266 11.602-18.222 16.623-18.222 16.623s-16.82-34.688-.223-34.977z" fill="#E0E0E0"/><path d="M143.288 224.954l-4.864 1.547 9.006 6.843s7.368-3.828 5.061-7.302l-1.495-.668a10.92 10.92 0 00-7.708-.42zM135.696 232.506l5.466 5.493a1.781 1.781 0 001.343.503c.246-.013.487-.078.708-.189a1.79 1.79 0 00.571-.459l3.632-4.509-9.007-6.844-2.805 3.842a1.595 1.595 0 00.092 2.163z" fill="#FFC3BD"/><path opacity=".2" d="M120.856 128.087c.251 1.102.435 2.218.551 3.343 3.251.826 7.866-2.897 8.298-6.057a20.104 20.104 0 00-.262-4.143l-8.587 6.857z" fill="#000"/><path d="M141.15 106.836c-2.216 9.675-3.002 15.443-8.954 19.756a13.648 13.648 0 01-21.644-9.74c-.761-9.072 2.989-23.375 13.581-25.918 10.593-2.543 19.232 6.214 17.017 15.902z" fill="#FFC3BD"/><path d="M136.667 115.305c-2.805.144-5.794-9.754.393-14.526-.983.538-3.67-.445-3.198-2.294-1.823.76-9.793.433-7.866-2.805-4.051 1.048-12.887-.708-13.831-4.576-.944-3.867 3.618-3.998 4.326-3.487-2.005-2.805-1.966-6.922 3.356-8.416 5.323-1.495 13.346 6.2 13.346 6.2-.839-2.031 2.111-3.67 5.165-1.926 3.055 1.743 4.484 6.699 4.484 6.699 0-1.495 7.131.511 3.749 6.777 3.5 1.311 5.1 3.173 4.877 6.411-.223 3.238-2.438 3.422-2.438 3.422a5.618 5.618 0 01-1.928 6.659c-3.631 2.924-6.803-.511-10.435 1.862z" fill="#263238"/><path d="M142.225 116.052a9.44 9.44 0 01-5.152 3.737c-2.701.721-3.618-1.692-2.517-4.209.996-2.268 3.592-5.388 6.135-4.994 2.544.393 3.055 3.211 1.534 5.466z" fill="#FFC3BD"/><path d="M125.117 106.443c-.131.786-.682 1.376-1.22 1.311-.537-.066-.878-.774-.747-1.573.131-.8.682-1.311 1.219-1.311.538 0 .813.773.748 1.573zM115.52 104.699c-.131.8-.668 1.39-1.206 1.311-.537-.079-.878-.773-.747-1.573.131-.8.669-1.311 1.206-1.311.538 0 .879.787.747 1.573z" fill="#263238"/><path d="M119.31 106.482a29.43 29.43 0 01-5.074 6.253 4.911 4.911 0 003.841 1.311l1.233-7.564z" fill="#ED847E"/><path d="M119.783 117.953a7.206 7.206 0 005.361-1.573.246.246 0 000-.341.26.26 0 00-.34 0 6.916 6.916 0 01-5.887 1.311.234.234 0 00-.288.184.22.22 0 00.097.243.242.242 0 00.086.032c.32.072.644.12.971.144zM125.51 100.989a.487.487 0 00-.317.27.46.46 0 00.107.517 4.745 4.745 0 004.116 1.547.47.47 0 00.321-.18.458.458 0 00.086-.358.492.492 0 00-.374-.39.506.506 0 00-.19-.003 3.791 3.791 0 01-3.212-1.311.52.52 0 00-.537-.092zM112.807 98.616a.56.56 0 00.459 0 4.268 4.268 0 013.618-.092.497.497 0 00.668-.17.496.496 0 00-.196-.655 5.245 5.245 0 00-4.536 0 .437.437 0 00-.245.267.444.444 0 00.035.362.51.51 0 00.197.288z" fill="#263238"/></g></svg>