<svg viewBox="0 0 176 35" fill="none" xmlns="http://www.w3.org/2000/svg">
<path fill-rule="evenodd" clip-rule="evenodd" d="M132.615 9.8956L131.233 11.1707H131.221L129.78 9.8956H126.69L124.954 11.9044L122.987 9.8956V23.2791H126.925V14.0731H128.698L129.252 15.0251V23.2791H133.19L132.783 22.818L133.202 23.2791V15.0251L133.814 14.0731H135.031L135.544 15.0251V23.2791H139.599V12.9507L136.483 9.8956H132.615Z" fill="#fff"/>
<path fill-rule="evenodd" clip-rule="evenodd" d="M45.4925 17.9493L44.0485 19.3022H39.9123V14.1134H44.0485L45.4925 15.6864V17.9493ZM42.771 10.0962H39.9126H39.9123L37.9095 12.0168L35.9 10.0962V27.9441H39.9123V23.3198L39.8589 23.2642V23.2636L39.9123 23.3198H45.5997L49.103 20.2647V13.7658L45.5997 10.0962H42.771Z" fill="#fff"/>
<path fill-rule="evenodd" clip-rule="evenodd" d="M77.6467 18.2199V14.7229H81.8958V10.783H77.6467L75.6186 8.58377L75.6202 8.58209L73.5877 6.61502V20.2744L77.5539 23.2791H82.5994V19.3281H79.3105L77.6467 18.2199Z" fill="#fff"/>
<path fill-rule="evenodd" clip-rule="evenodd" d="M67.1455 19.3412H62.9699L61.5118 17.7995V15.5811L62.9699 14.2548H67.1455V19.3412ZM67.1455 10.3169H61.4033L57.8663 13.3114V19.6821L61.4033 23.279H67.1455L69.168 21.3964L71.1965 23.279V14.2548L69.168 12.3594L67.1455 10.3169Z" fill="#fff"/>
<path fill-rule="evenodd" clip-rule="evenodd" d="M114.274 10.2739L112.247 12.3362L110.215 10.2739V23.2791H114.274V14.2248H118.459L120.972 16.7876V12.3308L118.356 10.2368L114.274 10.2739Z" fill="#fff"/>
<path fill-rule="evenodd" clip-rule="evenodd" d="M84.5792 8.7298V23.279H88.6386V18.444H92.8876V14.5041H88.6386V11.0068L90.3024 9.67649H93.591V5.72519H88.5457L84.5792 8.7298Z" fill="#fff"/>
<path fill-rule="evenodd" clip-rule="evenodd" d="M53.3183 7.92413L53.3196 7.92279L51.2871 5.72519V14.5028L51.2955 14.5115V14.5129L51.2871 14.5038V23.279H55.3465V14.5038L55.3435 14.5072V14.5058L55.3465 14.5028V10.1126L55.3455 10.114L53.3183 7.92413Z" fill="#fff"/>
<path fill-rule="evenodd" clip-rule="evenodd" d="M104.427 17.7729L102.917 19.322H100.16L98.6498 17.7729V15.5444L100.16 14.212H102.917L104.427 15.5444V17.7729ZM98.5376 10.255L94.8734 13.2637V19.6653L98.5376 23.279H104.539L108.204 19.6653V13.2637L104.539 10.255H98.5376Z" fill="#fff"/>
<path fill-rule="evenodd" clip-rule="evenodd" d="M151.751 14.3759V17.6262L150.319 19.6609H147.347L145.914 17.6262V11.126L147.347 9.09091H150.319L151.751 11.126H151.751V14.3759ZM145.799 5.6387L142.042 9.12154V19.63L145.799 23.1131H151.866L155.624 19.63V9.12154L151.866 5.6387H145.799Z" fill="#fff"/>
<path fill-rule="evenodd" clip-rule="evenodd" d="M168.404 12.7565H168.4L168.272 12.6592L168.301 12.7565H168.239L168.272 12.6592H163.059L162 11.658V10.3068L163.059 9.10505H166.404L168.504 10.9392L171.709 9.13601L167.952 5.63904H161.884L158.127 9.13601V13.4575L161.564 16.0929H165.005V16.105H166.422L167.837 17.0941V18.4457L166.404 19.6471H163.432L161.332 17.8133L158.127 19.6162L161.884 23.1131H167.952L171.709 19.6162V15.2943L168.404 12.7605V12.7565Z" fill="#fff"/>
<path fill-rule="evenodd" clip-rule="evenodd" d="M4.72727 5.38025H7.17792L3.32495 9.30126L4.72727 5.38025Z" fill="#56B146"/>
<path fill-rule="evenodd" clip-rule="evenodd" d="M2.01181 15.7527C2.01181 15.7527 0.0317268 12.1056 0 12.109L1.96806 12.1194L2.01181 15.7527Z" fill="#C3233D"/>
<path fill-rule="evenodd" clip-rule="evenodd" d="M1.96808 12.1194L6.01574 12.1187L2.01183 15.7527L1.96808 12.1194Z" fill="#D5246A"/>
<path fill-rule="evenodd" clip-rule="evenodd" d="M5.86207 18.9471L6.0157 12.1187L2.01178 15.7527L5.86207 18.9471Z" fill="#E77A2B"/>
<path fill-rule="evenodd" clip-rule="evenodd" d="M10.6996 15.5491L5.86041 18.9471L6.01571 12.1187L10.6996 15.5491Z" fill="#FAC922"/>
<path fill-rule="evenodd" clip-rule="evenodd" d="M13.7056 11.0513L6.01575 12.1188L10.6996 15.5491L13.7056 11.0513Z" fill="#56B146"/>
<path fill-rule="evenodd" clip-rule="evenodd" d="M11.9279 5.38025L8.82037 9.2215L13.7056 11.0513L11.9279 5.38025Z" fill="#C3233D"/>
<path fill-rule="evenodd" clip-rule="evenodd" d="M19.2214 5.38025H11.9279L13.7056 11.0513L19.2214 5.38025Z" fill="#487FB5"/>
<path fill-rule="evenodd" clip-rule="evenodd" d="M6.01575 12.1188L13.7056 11.0513L8.82039 9.2215L6.01575 12.1188Z" fill="#D5246A"/>
<path fill-rule="evenodd" clip-rule="evenodd" d="M20.6037 11.0513H13.7056L19.2214 5.38025L20.6037 11.0513Z" fill="#23477B"/>
<path fill-rule="evenodd" clip-rule="evenodd" d="M17.1445 17.3661L10.6996 15.5491L13.7056 11.0513L17.1445 17.3661Z" fill="#419845"/>
<path fill-rule="evenodd" clip-rule="evenodd" d="M20.6037 11.0513L17.1445 17.3661L13.7056 11.0513H20.6037Z" fill="#014C3D"/>
<path fill-rule="evenodd" clip-rule="evenodd" d="M23.0246 15.5491L17.1445 17.3661L20.6037 11.0513L23.0246 15.5491Z" fill="#419845"/>
<path fill-rule="evenodd" clip-rule="evenodd" d="M21.9539 19.2345L17.1445 17.3661L23.0246 15.5491L21.9539 19.2345Z" fill="#56B146"/>
<path fill-rule="evenodd" clip-rule="evenodd" d="M19.2214 5.38025L24.5314 9.78486L20.6037 11.0513L19.2214 5.38025Z" fill="#487FB5"/>
<path fill-rule="evenodd" clip-rule="evenodd" d="M20.6037 11.0512L24.5315 9.78485L23.0246 15.5491L20.6037 11.0512Z" fill="#008B47"/>
<path fill-rule="evenodd" clip-rule="evenodd" d="M23.0246 15.5491L28.4586 16.585L21.9539 19.2345L23.0246 15.5491Z" fill="#014C3D"/>
<path fill-rule="evenodd" clip-rule="evenodd" d="M28.4586 16.585L28.524 21.7848L21.9539 19.2345L28.4586 16.585Z" fill="#419845"/>
<path fill-rule="evenodd" clip-rule="evenodd" d="M21.9539 19.2345L28.524 21.7848L23.56 22.6188L21.9539 19.2345Z" fill="#23477B"/>
<path fill-rule="evenodd" clip-rule="evenodd" d="M28.524 21.7848L25.9742 27.4478L23.5599 22.6188L28.524 21.7848Z" fill="#56B146"/>
<path fill-rule="evenodd" clip-rule="evenodd" d="M23.56 22.6187L25.9742 27.4477L22.2949 25.3861L23.56 22.6187Z" fill="#487FB5"/>
<path fill-rule="evenodd" clip-rule="evenodd" d="M25.9742 27.4477L22.335 29.8459L22.2949 25.3861L25.9742 27.4477Z" fill="#23477B"/>
<path fill-rule="evenodd" clip-rule="evenodd" d="M22.2949 25.3861L22.3349 29.8459L20.5078 26.9493L22.2949 25.3861Z" fill="#487FB5"/>
<path fill-rule="evenodd" clip-rule="evenodd" d="M22.335 29.8459H17.4764L20.5078 26.9493L22.335 29.8459Z" fill="#23477B"/>
<path fill-rule="evenodd" clip-rule="evenodd" d="M20.5079 26.9493L17.4764 29.8459L18.0118 26.9493H20.5079Z" fill="#C3233D"/>
<path fill-rule="evenodd" clip-rule="evenodd" d="M18.0118 26.9493L17.4764 29.8459L15.14 26.9493H18.0118Z" fill="#D5246A"/>
<path fill-rule="evenodd" clip-rule="evenodd" d="M18.0118 26.9493H15.14L16.8436 24.9446L18.0118 26.9493Z" fill="#C3233D"/>
<path fill-rule="evenodd" clip-rule="evenodd" d="M15.14 26.9493V23.1582L16.8436 24.9446L15.14 26.9493Z" fill="#E77A2B"/>
<path fill-rule="evenodd" clip-rule="evenodd" d="M24.5315 9.78485L28.4586 16.5849L23.0246 15.5491L24.5315 9.78485Z" fill="#56B146"/>
<path fill-rule="evenodd" clip-rule="evenodd" d="M18.0118 23.2565L17.6224 21.315L20.4938 22.6204L18.0118 23.2565Z" fill="#419845"/>
<path fill-rule="evenodd" clip-rule="evenodd" d="M15.14 23.1582L18.0118 23.2565L17.6224 21.315L15.14 23.1582Z" fill="#56B146"/>
<path fill-rule="evenodd" clip-rule="evenodd" d="M16.8436 24.9446L18.0118 23.2565L15.14 23.1582L16.8436 24.9446Z" fill="#FAC922"/>
<path fill-rule="evenodd" clip-rule="evenodd" d="M6.69202 7.90496L8.82038 9.2215L8.71719 6.61938L6.69202 7.90496Z" fill="#419845"/>
<path fill-rule="evenodd" clip-rule="evenodd" d="M6.69202 7.90496L8.71719 6.61938L7.17794 5.38025L6.69202 7.90496Z" fill="#56B146"/>
<path fill-rule="evenodd" clip-rule="evenodd" d="M3.32495 9.30126L7.17792 5.38025L6.692 7.90496L3.32495 9.30126Z" fill="#008B47"/>
<path fill-rule="evenodd" clip-rule="evenodd" d="M8.82038 9.22151L6.69202 7.90497L5.70148 9.27939L8.82038 9.22151Z" fill="#014C3D"/>
<path fill-rule="evenodd" clip-rule="evenodd" d="M3.32495 9.30127L6.692 7.90497L5.70145 9.27939L3.32495 9.30127Z" fill="#419845"/>
<path fill-rule="evenodd" clip-rule="evenodd" d="M1.96808 12.1194L5.70148 9.27939L6.01574 12.1188L1.96808 12.1194Z" fill="#E77A2B"/>
<path fill-rule="evenodd" clip-rule="evenodd" d="M5.70148 9.27938L6.01574 12.1188L8.82038 9.2215L5.70148 9.27938Z" fill="#C3233D"/>
<path fill-rule="evenodd" clip-rule="evenodd" d="M1.96808 12.1194L3.32498 9.30126L5.70148 9.27939L1.96808 12.1194Z" fill="#FAC922"/>
<path fill-rule="evenodd" clip-rule="evenodd" d="M11.0706 18.9404L9.90277 20.9448H13.2665L11.0706 18.9404Z" fill="#419845"/>
<path fill-rule="evenodd" clip-rule="evenodd" d="M8.53986 18.9471L9.90277 20.9448L11.0706 18.9404L8.53986 18.9471Z" fill="#56B146"/>
<path fill-rule="evenodd" clip-rule="evenodd" d="M10.6996 15.5491L11.0706 18.9404L17.1445 17.3661L10.6996 15.5491Z" fill="#014C3D"/>
<path fill-rule="evenodd" clip-rule="evenodd" d="M13.2664 20.9448L17.1445 17.3661L11.0706 18.9404L13.2664 20.9448Z" fill="#008B47"/>
</svg>