<svg xmlns="http://www.w3.org/2000/svg" fill="none" viewBox="0 0 957 577"><defs/><path fill="#F5F6FC" d="M483.8 472L10.5 0H957L483.8 472z"/><mask id="a" width="352" height="174" x="297" y="403" maskUnits="userSpaceOnUse"><path fill="#C4C4C4" d="M297 403.5h352v173H297z"/></mask><g mask="url(#a)"><mask id="b" width="48" height="69" x="527" y="421" maskUnits="userSpaceOnUse"><path fill="#fff" fill-rule="evenodd" d="M574.9 421.4h-47.2v67.7h47.2v-67.7z" clip-rule="evenodd"/></mask><g fill-rule="evenodd" clip-rule="evenodd" mask="url(#b)"><path fill="#56B146" d="M543.8 421.4h-16.1l25.4 25.6-9.3-25.6z"/><path fill="#C3233D" d="M561.7 489s13-23.7 13.3-23.7h-13l-.3 23.8z"/></g><path fill="#D5246A" fill-rule="evenodd" d="M562 465.4h-26.6l26.3 23.7.3-23.7z" clip-rule="evenodd"/><path fill="#E77A2B" fill-rule="evenodd" d="M536.4 510l-1-44.6 26.3 23.7-25.3 20.8z" clip-rule="evenodd"/><path fill="#FAC922" fill-rule="evenodd" d="M504.5 487.8l31.9 22.1-1-44.5-31 22.4z" clip-rule="evenodd"/><path fill="#56B146" fill-rule="evenodd" d="M484.7 458.4l50.7 7-31 22.4-19.7-29.4z" clip-rule="evenodd"/><path fill="#C3233D" fill-rule="evenodd" d="M496.4 421.4l20.5 25-32.2 12 11.7-37z" clip-rule="evenodd"/><path fill="#487FB5" fill-rule="evenodd" d="M448.3 421.4h48l-11.6 37-36.4-37z" clip-rule="evenodd"/><path fill="#D5246A" fill-rule="evenodd" d="M535.4 465.4l-50.7-7 32.2-12 18.5 19z" clip-rule="evenodd"/><path fill="#23477B" fill-rule="evenodd" d="M439.2 458.4h45.5l-36.4-37-9 37z" clip-rule="evenodd"/><path fill="#419845" fill-rule="evenodd" d="M462 499.6l42.5-11.9-19.8-29.3-22.7 41.2z" clip-rule="evenodd"/><path fill="#014C3D" fill-rule="evenodd" d="M439.2 458.4l22.8 41.2 22.7-41.2h-45.5z" clip-rule="evenodd"/><path fill="#419845" fill-rule="evenodd" d="M423.3 487.8l38.7 11.8-22.8-41.2-16 29.4z" clip-rule="evenodd"/><path fill="#56B146" fill-rule="evenodd" d="M430.3 511.8l31.7-12.2-38.7-11.9 7 24z" clip-rule="evenodd"/><path fill="#487FB5" fill-rule="evenodd" d="M448.3 421.4l-35 28.8 26 8.2 9-37z" clip-rule="evenodd"/><path fill="#008B47" fill-rule="evenodd" d="M439.2 458.4l-25.9-8.2 10 37.6 16-29.4z" clip-rule="evenodd"/><path fill="#014C3D" fill-rule="evenodd" d="M423.3 487.8l-35.9 6.7 43 17.3-7.1-24z" clip-rule="evenodd"/><path fill="#419845" fill-rule="evenodd" d="M387.4 494.5l-.4 34 43.3-16.7-42.9-17.3z" clip-rule="evenodd"/><path fill="#23477B" fill-rule="evenodd" d="M430.3 511.8L387 528.4l32.7 5.5 10.6-22.1z" clip-rule="evenodd"/><path fill="#56B146" fill-rule="evenodd" d="M387 528.4l16.8 37 16-31.5-32.8-5.5z" clip-rule="evenodd"/><path fill="#487FB5" fill-rule="evenodd" d="M419.7 533.9l-15.9 31.5 24.3-13.5-8.4-18z" clip-rule="evenodd"/><path fill="#23477B" fill-rule="evenodd" d="M403.8 565.4l24 15.6.3-29-24.3 13.4z" clip-rule="evenodd"/><path fill="#487FB5" fill-rule="evenodd" d="M428 552l-.2 29 12-18.9-11.7-10.2z" clip-rule="evenodd"/><path fill="#23477B" fill-rule="evenodd" d="M427.8 581h32l-20-18.9-12 18.9z" clip-rule="evenodd"/><path fill="#C3233D" fill-rule="evenodd" d="M439.8 562.1l20 18.9-3.5-18.9h-16.5z" clip-rule="evenodd"/><path fill="#D5246A" fill-rule="evenodd" d="M456.3 562.1l3.5 18.9 15.4-18.9h-19z" clip-rule="evenodd"/><path fill="#C3233D" fill-rule="evenodd" d="M456.3 562.1h19l-11.3-13-7.7 13z" clip-rule="evenodd"/><path fill="#E77A2B" fill-rule="evenodd" d="M475.2 562.1v-24.7L464 549l11.2 13.1z" clip-rule="evenodd"/><path fill="#56B146" fill-rule="evenodd" d="M413.3 450.2l-25.9 44.3 35.9-6.8-10-37.5z" clip-rule="evenodd"/><path fill="#419845" fill-rule="evenodd" d="M456.3 538l2.6-12.6-19 8.5 16.4 4.1z" clip-rule="evenodd"/><path fill="#56B146" fill-rule="evenodd" d="M475.2 537.4l-19 .6 2.7-12.6 16.3 12z" clip-rule="evenodd"/><path fill="#FAC922" fill-rule="evenodd" d="M464 549l-7.7-11 19-.6L464 549z" clip-rule="evenodd"/><path fill="#419845" fill-rule="evenodd" d="M530.9 437.9l-14 8.6.7-17 13.3 8.4z" clip-rule="evenodd"/><path fill="#56B146" fill-rule="evenodd" d="M530.9 437.9l-13.3-8.4 10.1-8 3.2 16.4z" clip-rule="evenodd"/><path fill="#008B47" fill-rule="evenodd" d="M553 447l-25.3-25.6 3.2 16.5 22.2 9.1z" clip-rule="evenodd"/><path fill="#014C3D" fill-rule="evenodd" d="M516.9 446.5l14-8.6 6.5 9-20.5-.4z" clip-rule="evenodd"/><path fill="#419845" fill-rule="evenodd" d="M553 447l-22.1-9.1 6.5 9 15.7.1z" clip-rule="evenodd"/><path fill="#E77A2B" fill-rule="evenodd" d="M562 465.4l-24.6-18.5-2 18.5H562z" clip-rule="evenodd"/><path fill="#C3233D" fill-rule="evenodd" d="M537.4 446.9l-2 18.5-18.5-19 20.5.5z" clip-rule="evenodd"/><path fill="#FAC922" fill-rule="evenodd" d="M562 465.4l-9-18.4-15.6-.1 24.6 18.5z" clip-rule="evenodd"/><path fill="#419845" fill-rule="evenodd" d="M502 509.9l7.7 13h-22.1l14.4-13z" clip-rule="evenodd"/><path fill="#56B146" fill-rule="evenodd" d="M518.7 510l-9 13-7.7-13.1h16.7z" clip-rule="evenodd"/><path fill="#014C3D" fill-rule="evenodd" d="M504.5 487.8l-2.5 22-40-10.2 42.5-11.9z" clip-rule="evenodd"/><path fill="#008B47" fill-rule="evenodd" d="M487.6 523L462 499.5l40 10.3-14.4 13z" clip-rule="evenodd"/></g><path fill="#4A586D" d="M225.9 314.5h3.7v-8.9h10v8.9h3.7v-21h-3.7v8.7h-10v-8.7h-3.7v21zm29.6.4c3 0 5-1.2 6.5-3l-2.1-1.9a5.8 5.8 0 01-4.3 1.9c-2.4 0-4.2-1.4-4.6-4h11.6l.1-1c0-4.6-2.5-8.6-7.6-8.6-4.5 0-7.7 3.8-7.7 8.3 0 5 3.5 8.3 8.1 8.3zm-4.5-9.4c.3-2.5 1.9-4.2 4-4.2 2.5 0 3.9 1.8 4.1 4.2H251zm15.6 9h3.6v-21.9h-3.6v21.9zm8.5 0h3.7v-21.9H275v21.9zm16 .4c4.8 0 8.4-3.8 8.4-8.3 0-4.6-3.5-8.3-8.4-8.3a8.3 8.3 0 00-8.4 8.3c0 4.6 3.5 8.3 8.4 8.3zm0-3.2c-2.8 0-4.8-2.3-4.8-5v-.1c0-2.8 1.8-5 4.8-5 2.8 0 4.8 2.2 4.8 5s-1.8 5-4.8 5zm28.5 3h3.3l8.7-21.2h-4l-6.3 16.1-6.4-16.1h-4l8.7 21.1zm14.6-18.5h4v-3.4h-4v3.4zm.2 18.3h3.6v-15.8h-3.6v15.8zm8.5 0h3.7v-21.9h-3.7v21.9zm13 .3c2.4 0 4-1 5.1-2.3v2h3.6v-9.4c0-2-.6-3.7-1.7-4.9-1.1-1.1-3-1.8-5.3-1.8-2.5 0-4.2.6-6 1.3l1 2.9a11 11 0 014.5-1c2.6 0 4 1.2 4 3.4v.4c-1.3-.3-2.5-.6-4.3-.6-3.9 0-6.5 1.7-6.5 5v.1c0 3.2 2.6 5 5.6 5zm1-2.6c-1.7 0-3-.9-3-2.4 0-1.7 1.3-2.7 3.6-2.7 1.5 0 2.7.3 3.6.6v1.1c0 2-1.8 3.4-4.2 3.4zm-.5-15.6h2.7l3.7-3.4-3.3-1.5-3 5zm19.6 22.8c2.8 0 5-.7 6.5-2.2 1.3-1.3 2-3.3 2-6v-12.5h-3.6v2.3a6.8 6.8 0 00-5.6-2.7 7.1 7.1 0 00-7.2 7.5c0 4.7 3.5 7.4 7.2 7.4 2.6 0 4.3-1.2 5.6-2.9v1.3c0 3.1-1.8 4.8-5 4.8-2.2 0-4-.6-5.7-1.7l-1.3 2.8c2 1.2 4.5 1.9 7 1.9zm.3-9.3c-2.5 0-4.5-1.7-4.5-4.3 0-2.7 2-4.4 4.5-4.4s4.6 1.8 4.6 4.3v.1c0 2.6-2.1 4.3-4.6 4.3zm14-2.3h2l1.1-13.3v-1h-4.2v1l1.1 13.3zm-1 6.7h4v-4.1h-4v4.1zM470 325.6h2l3.5-10 3.4 10h2.2l4.8-14.1h-2.5l-3.4 10.4-3.4-10.4h-2l-3.5 10.4-3.4-10.4h-2.6l4.8 14.1zm18-12.3h2.5V311H488v2.3zm0 12.2h2.5v-10.6H488v10.6zm9.2.2c.9 0 1.5-.2 2.1-.6v-2c-.4.3-1 .4-1.5.4-.8 0-1.3-.4-1.3-1.3V317h2.9v-2h-2.9v-3h-2.4v3h-1.3v2h1.3v5.6c0 2.3 1.3 3 3 3zm7.7 0c1.6 0 2.7-.7 3.4-1.5v1.3h2.4v-6.3c0-1.3-.4-2.5-1.2-3.2-.7-.8-1.9-1.2-3.5-1.2a9 9 0 00-4 .9l.7 1.9c1-.4 1.8-.7 3-.7 1.7 0 2.6.8 2.6 2.3v.3c-.8-.3-1.6-.5-2.8-.5-2.6 0-4.4 1.1-4.4 3.4 0 2.2 1.8 3.3 3.8 3.3zm.7-1.7c-1.2 0-2.1-.6-2.1-1.6 0-1.2 1-1.8 2.5-1.8 1 0 1.8.1 2.4.4v.7c0 1.3-1.2 2.3-2.8 2.3zm8-10.7h2.6V311h-2.6v2.3zm-.5 15.5c2 0 3-1 3-3.2V315h-2.4v10.6c0 1-.4 1.3-1.1 1.3h-.7v1.9h1.2zm17.4-3.1c3 0 5-1.6 5-4.2 0-2.3-1.5-3.4-4.5-4.1-2.7-.7-3.3-1.1-3.3-2.2 0-1 .8-1.7 2.2-1.7 1.3 0 2.6.5 3.8 1.4l1.4-1.8a7.8 7.8 0 00-5.1-1.8c-2.8 0-4.8 1.7-4.8 4v.1c0 2.6 1.7 3.5 4.7 4.2 2.6.6 3.1 1.1 3.1 2.1 0 1.1-1 1.8-2.5 1.8-1.7 0-3-.6-4.4-1.8l-1.5 1.8a8.6 8.6 0 005.9 2.2zm-1.2-15.6h1.9l2.5-1.9-2.2-1-2.2 3zm11.1 15.5h2.2l2.4-7.2 2.3 7.2h2.2l3.5-10.7h-2.5l-2.1 7.3-2.4-7.3h-2l-2.4 7.3-2.1-7.3H537l3.4 10.7zm14.8-12.3h2.6V311h-2.6v2.3zm0 12.2h2.5v-10.6h-2.4v10.6zm10.5.2c2 0 3.3-.7 4.3-2l-1.4-1.2c-.9.8-1.7 1.3-2.9 1.3-1.5 0-2.8-1-3-2.7h7.7v-.7c0-3-1.6-5.7-5-5.7-3 0-5.1 2.5-5.1 5.5 0 3.3 2.3 5.5 5.4 5.5zm-3-6.2c.2-1.7 1.2-2.8 2.7-2.8 1.6 0 2.5 1.2 2.7 2.8h-5.4zm15.1 6.2c2 0 3.3-.8 4.3-2l-1.4-1.4c-.8.8-1.6 1.3-2.8 1.3-1.8 0-3.1-1.5-3.1-3.4 0-1.8 1.3-3.4 3-3.4 1.2 0 2 .6 2.7 1.4l1.6-1.7c-1-1-2.3-1.8-4.3-1.8a5.5 5.5 0 00-5.5 5.5c0 3 2.4 5.5 5.5 5.5zm6.6-12.4h2.6V311h-2.6v2.3zm0 12.2h2.5v-10.6h-2.4v10.6zm10.5.2c2 0 3.3-.7 4.3-2l-1.4-1.2c-.8.8-1.7 1.3-2.9 1.3-1.5 0-2.7-1-3-2.7h7.8v-.7c0-3-1.7-5.7-5-5.7-3 0-5.2 2.5-5.2 5.5 0 3.3 2.3 5.5 5.4 5.5zm-3-6.2c.2-1.7 1.2-2.8 2.7-2.8 1.6 0 2.5 1.2 2.7 2.8H592zm11 1.6h1.4l.8-8.9v-.7h-2.9v.7l.8 8.9zm-.6 4.4h2.7v-2.8h-2.7v2.8zM418.4 151.3a16 16 0 00-.1-6.5h6.2v6.5h-6.1zm-6.4 4.2c-2.6 0-4.4-2.8-4.4-7.2s1.8-7.2 4.4-7.2c2.6 0 4.4 2.8 4.4 7.2 0 4.3-1.8 7.2-4.4 7.2zm12.5-18.7v6h-6.9c-1.1-2.5-3.1-4-5.6-4-4 0-6.7 3.7-6.7 9.5 0 5.7 2.8 9.4 6.7 9.4 2.6 0 4.7-1.6 5.8-4.4h6.7v10.5h2.5v-27h-2.5zm13.2 8.7h13.7v5h-13.7v-5zm8.1 12.8v-5.8h8v-13.8h-2.4v4.8h-13.7v-4.8h-2.4v13.8h8v5.8h-10.9v2h24.4v-2h-11zm22.2-19h-2.4v5.2c0 4.6-2.2 9.4-6 11.6l1.6 1.8c2.7-1.6 4.6-4.7 5.6-8.2 1 3.3 2.8 6.1 5.3 7.7l1.4-2c-3.5-2.1-5.5-6.7-5.5-11v-5zm7 7.2h-4.4v2h4.5v13.9h2.3v-25H475v9zm5.5-9.7v27h2.4v-27h-2.4zM496 152a16 16 0 007.5 0v6.3H496V152zm3.7-11.5c4.4 0 7.5 2 7.5 5s-3.1 5-7.5 5c-4.3 0-7.4-2-7.4-5s3.1-5 7.4-5zm6.3 17.8V151c2.2-1.1 3.5-3 3.5-5.5 0-4.2-4-6.9-9.8-6.9-5.7 0-9.7 2.7-9.7 7 0 2.3 1.3 4.3 3.6 5.5v7.2h-6v2H512v-2h-6zm26.2-18.8h-2.4v5c0 4.7-2.2 9.5-6 11.7l1.6 1.8c2.7-1.6 4.6-4.7 5.6-8.2 1 3.3 2.8 6.1 5.3 7.7l1.4-2c-3.5-2.1-5.5-6.7-5.5-11v-5zm7 7h-4.4v2.1h4.4v13.9h2.4v-25h-2.4v9zm5.5-9.6v27h2.3v-27h-2.3zm22.2 7.5h-4c.3-1.3.4-2.7.4-4H553v2h7.8a17.2 17.2 0 01-9 13.9l1.4 1.7c5-3 8-7 9.3-11.6h4.4v4.7H562v2h4.9v9.3h2.3v-24.8H567v6.8zm5.4-7.5v26.9h2.3v-26.9h-2.3zM784 96.5c-1.7 4.6-4.5 9-7.4 12 .4.4 1 1.6 1.3 2.1 1-1.1 2-2.3 3-3.7v16.8h2.1v-20.1c1.2-2 2.2-4.2 3.1-6.5l-2-.6zm5.5 12.7c-.8 3.5-2.3 7-4.1 9.4.5.3 1.5.8 1.9 1.2 1.8-2.5 3.4-6.3 4.4-10.2l-2.2-.4zm12.7-5l-.7 4.2 1.8.4 1.4-6.4-1.6-.3h-12.5l1.6-5-2.2-.6c-1 4.4-2.7 8.7-5 11.5.6.3 1.5 1 1.9 1.4 1-1.4 2-3.2 2.9-5.2h4.5v16.9c0 .4 0 .5-.5.5h-3l.7 2.2c1.9 0 3.2 0 4-.4.8-.4 1-1 1-2.3v-16.9h5.7zm-3.5 5.4c1.6 3.1 3.1 7.3 3.6 10l2.1-.6c-.5-2.8-2-6.9-3.7-10l-2 .6zm17.6-5c-.4 4-1.1 7.2-2.3 10a45 45 0 00-3.5-2.3l1.9-7.7h4zm1-2.1h-4.4l1.1-5.8-2-.3-1.3 6.2h-3.3v2h2.9a217 217 0 01-2.5 10l1.9 1 .3-1.3 3 2.2a13.2 13.2 0 01-5.4 5.5l1.4 1.8a16 16 0 005.8-6c1.3 1 2.3 2.1 3 3l1.4-1.8c-.8-1-2-2-3.4-3.1a40 40 0 002.8-13.1l-1.4-.3zm17.5 6h-7.1v-2.8c2.2-1.7 4.8-4.4 6.5-6.8l-1.5-1.1-.5.2h-12.8v2h11.2a28.6 28.6 0 01-4.3 4.4h-.9v4h-7v2h7V121c0 .4-.1.6-.6.6h-4.1c.3.5.7 1.5.8 2.1 2.4 0 4 0 4.9-.4 1-.3 1.3-1 1.3-2.3v-10.5h7.1v-2zm17.3 3.8V106h5.6v6.3H852zm7.8 3.4V106h4.7v-2.1h-4.7v-7h-2.2v7H852v-7.3H850v7.3h-5.6v-6.7H842v6.7h-4.5v2h4.5v17.9h2.3v-2.2h19.2v-2.2h-19.2V106h5.6v9.8h2.1v-1.4h5.7v1.3h2.2zm15.5-.6c0 2.3-.5 5.2-5.8 7l1.6 1.9c5.8-2.3 6.4-6 6.4-8.8v-1.8h-2.2v1.7zm-2.4-10.9h6.9v3.3h-7v-3.3zm0-5h6.9v3.3h-7v-3.2zm16 3.3h-7v-3.2h7v3.2zm0 5h-7v-3.3h7v3.3zm2.3 1.8v-12h-20.5v12h6a22.3 22.3 0 01-9.4 5.4c.6.4 1.2 1.3 1.5 1.8 4-1.4 8.1-4 10.6-7.2h3.3c1.1 1.5 2.6 2.9 4.3 4h-2.2v10.5h2.3v-10.4c1.8 1.3 4 2.3 6 3a8 8 0 011.5-1.9 21 21 0 01-9.3-5.2h5.9zM728.7 186.5h1.9v-4.4h5v4.4h1.8V176h-1.8v4.4h-5V176h-1.9v10.5zm14.8.2a4 4 0 003.3-1.5l-1-1c-.7.7-1.4 1-2.2 1-1.2 0-2.1-.7-2.3-2h5.8v-.5c0-2.3-1.2-4.3-3.8-4.3-2.2 0-3.8 1.9-3.8 4.1a4 4 0 004 4.2zm-2.2-4.7c.1-1.2 1-2.1 2-2.1 1.2 0 2 1 2 2h-4zm7.7-4.6h2v-1.8h-2v1.8zm0 9.1h1.9v-8H749v8zm8.7 0h1.9V182c0-1.2.6-2 1.7-2 1 0 1.6.8 1.6 2v4.5h1.8V182c0-1.2.7-2 1.7-2s1.6.7 1.6 2v4.5h1.8v-5c0-2-1-3-2.8-3-1.2 0-2 .5-2.7 1.3a2.5 2.5 0 00-2.3-1.4c-1.2 0-2 .7-2.4 1.4v-1.2h-1.9v7.9zm16.6.2c1.2 0 2-.5 2.6-1.2v1h1.7v-4.7c0-1-.2-1.9-.8-2.4-.6-.6-1.5-1-2.7-1-1.2 0-2 .3-3 .7l.5 1.4c.8-.3 1.4-.4 2.3-.4 1.3 0 2 .6 2 1.7v.2c-.6-.2-1.3-.4-2.2-.4-1.9 0-3.2.9-3.2 2.6 0 1.6 1.3 2.5 2.8 2.5zm.5-1.4c-.9 0-1.6-.4-1.6-1.2 0-.8.7-1.3 1.9-1.3a5 5 0 011.8.3v.6c0 1-1 1.6-2.1 1.6zm8.3 1.4c1.2 0 2-.5 2.6-1.2v1h1.7v-4.7c0-1-.2-1.9-.8-2.4-.6-.6-1.5-1-2.6-1-1.3 0-2.2.3-3 .7l.4 1.4c.8-.3 1.4-.4 2.3-.4 1.3 0 2 .6 2 1.7v.2c-.6-.2-1.3-.4-2.2-.4-1.9 0-3.2.9-3.2 2.6 0 1.6 1.3 2.5 2.8 2.5zm.5-1.4c-.9 0-1.6-.4-1.6-1.2 0-.8.7-1.3 2-1.3a5 5 0 011.7.3v.6c0 1-1 1.6-2.1 1.6zm6-8h2v-1.7h-2v1.8zm.1 9.2h1.8v-8h-1.8v8zm4.3 0h1.8v-11H794v11zm4.2 0h1.8V182c0-1.2.7-2 1.7-2s1.6.8 1.6 2v4.5h1.8V182c0-1.2.7-2 1.7-2s1.6.7 1.6 2v4.5h1.8v-5c0-2-1-3-2.7-3-1.2 0-2 .5-2.7 1.3a2.5 2.5 0 00-2.4-1.4c-1.2 0-1.9.7-2.4 1.4v-1.2h-1.8v7.9zm16.5.2c1.2 0 2-.5 2.6-1.2v1h1.8v-4.7c0-1-.3-1.9-.9-2.4-.5-.6-1.4-1-2.6-1-1.3 0-2.1.3-3 .7l.5 1.4c.7-.3 1.4-.4 2.3-.4 1.2 0 2 .6 2 1.7v.2c-.7-.2-1.3-.4-2.2-.4-2 0-3.3.9-3.3 2.6 0 1.6 1.3 2.5 2.8 2.5zm.5-1.4c-.8 0-1.5-.4-1.5-1.2 0-.8.7-1.3 1.8-1.3a5 5 0 011.8.3v.6c0 1-.9 1.6-2 1.6zm6.7-2.1h1l.5-6.7v-.5h-2v.5l.5 6.7zm-.5 3.3h2v-2h-2v2zM704 294h2.5v-5.9h6.7v5.9h2.4v-14h-2.4v5.8h-6.7V280H704v14zm20 .2c3.2 0 5.6-2.5 5.6-5.5s-2.3-5.5-5.6-5.5a5.5 5.5 0 00-5.6 5.5c0 3 2.4 5.5 5.6 5.5zm0-2c-1.9 0-3.2-1.6-3.2-3.5 0-1.8 1.2-3.4 3.2-3.4 1.9 0 3.2 1.6 3.2 3.4 0 1.9-1.2 3.4-3.2 3.4zm8.2 1.8h2.5v-14.6h-2.5V294zm8.7.2c1.6 0 2.7-.7 3.4-1.5v1.3h2.4v-6.3c0-1.3-.4-2.5-1.2-3.2-.7-.8-1.9-1.2-3.5-1.2a9 9 0 00-4 .9l.7 1.9c1-.4 1.8-.7 3-.7 1.7 0 2.6.8 2.6 2.3v.3c-.8-.3-1.6-.5-2.8-.5-2.6 0-4.4 1.1-4.4 3.4 0 2.2 1.8 3.3 3.8 3.3zm.6-1.7c-1.1 0-2-.6-2-1.6 0-1.2.9-1.8 2.5-1.8 1 0 1.7.1 2.4.4v.7c0 1.3-1.3 2.3-2.9 2.3zm14.3 1.5h2.5v-10l4.3 6.6h.1l4.4-6.6v10h2.5v-14H767l-4.3 6.6-4.2-6.6h-2.7v14zm20.8.2c1.6 0 2.6-.8 3.3-1.8v1.6h2.4v-10.6h-2.4v6c0 1.6-1 2.6-2.4 2.6-1.5 0-2.3-1-2.3-2.6v-6h-2.4v6.8c0 2.4 1.4 4 3.8 4zm8.7-.2h2.4v-6c0-1.6 1-2.6 2.4-2.6 1.5 0 2.3 1 2.3 2.6v6h2.4v-6.7c0-2.5-1.4-4-3.8-4-1.6 0-2.6.8-3.3 1.8v-1.7h-2.4V294zm16.8.2c1.7 0 2.8-.9 3.6-2v1.8h2.4v-14.6h-2.4v5.7c-.8-1-1.9-1.9-3.6-1.9-2.5 0-5 2-5 5.5s2.5 5.5 5 5.5zm.6-2c-1.7 0-3-1.4-3-3.5s1.3-3.4 3-3.4c1.6 0 3 1.4 3 3.4s-1.4 3.4-3 3.4zm13.5 2c3.2 0 5.6-2.5 5.6-5.5s-2.4-5.5-5.6-5.5a5.5 5.5 0 00-5.6 5.5c0 3 2.3 5.5 5.6 5.5zm0-2c-1.9 0-3.2-1.6-3.2-3.5 0-1.8 1.2-3.4 3.2-3.4 1.9 0 3.2 1.6 3.2 3.4 0 1.9-1.2 3.4-3.2 3.4zM540.7 367.5v1.6a67.6 67.6 0 0010.7 0v-1.7a59 59 0 01-10.7 0zm.8 8l-1.6-.1c-.2.8-.4 1.7-.4 2.7 0 2.6 2.3 3.9 6.4 3.9 2.8 0 5.4-.3 6.8-.7v-1.7c-1.5.5-4.1.8-6.9.8-3.2 0-4.7-1-4.7-2.6 0-.7.1-1.5.4-2.3zm25.4-8.8l-1.7-.8-.8 1.6c-1 2-5.4 10.1-6.9 14.2l1.7.6a32 32 0 011.8-4.6c.7-1.6 2.2-3.2 3.9-3.2.9 0 1.4.5 1.4 1.4l.1 3.8c0 1.2.8 2.5 2.9 2.5 2.9 0 4.6-2.2 5.6-5.4l-1.3-1.1c-.5 2.1-1.8 4.9-4 4.9-1 0-1.6-.4-1.7-1.4v-3.7c-.1-1.6-1-2.5-2.4-2.5-1 0-2 .4-3 1.3 1-2 3-5.3 3.8-6.7l.6-1zm18.2 1.3v1.6c2.2.2 6.1.2 8.2 0V368c-2 .3-6 .4-8.2 0zm.8 8.1l-1.4-.1c-.3 1-.4 1.7-.4 2.4 0 1.8 1.5 3 4.9 3 2 0 3.7-.2 5-.5v-1.6a22 22 0 01-5 .5c-2.7 0-3.4-.9-3.4-1.8l.3-1.9zm-4.6-9.6l-1.8-.2-.1 1.4c-.3 1.7-1 5.1-1 8 0 2.7.4 5 .8 6.5l1.5-.1-.1-.7.1-1 1.4-4.4-.8-.7-1.2 3a46.4 46.4 0 011.2-11.8zm23.2-.7h-1.8l-.1 1.6-.2 1.3h-.4c-1.2 0-2.7-.1-3.8-.3v1.5c1.2.2 2.5.2 3.9.2-.5 2.3-1.3 5.2-2.3 7.2l1.5.5c.1-.4.3-.6.6-1a7.5 7.5 0 015.9-2.3c2.3 0 3.6 1.1 3.6 2.6 0 3.3-4.5 4.1-9.2 3.5l.4 1.5c6.1.7 10.4-.9 10.4-5 0-2.4-1.9-4-5-4-2.1 0-4 .5-5.7 1.7.5-1.1 1-3 1.3-4.7 2.6-.1 5.8-.4 8.1-.8v-1.6a48 48 0 01-7.8 1l.2-1.2.4-1.7zm20.4 13.3c0-1 1-1.6 2.6-1.6.7 0 1.4.1 2 .3v.7c0 1.3-.5 2.2-2.1 2.2-1.5 0-2.5-.6-2.5-1.6zm6-13h-1.7v3.7a59 59 0 01-5.2-.1v1.5a48.2 48.2 0 005.3 0l.2 5.2-1.9-.2c-2.6 0-4.1 1.4-4.1 3 0 1.9 1.5 3 4.1 3 2.7 0 3.5-1.7 3.5-3.3v-.4c1 .6 2 1.4 3 2.3l.9-1.3c-1-1-2.3-2-4-2.6l-.2-5.7 3.5-.4v-1.5l-3.5.4v-2.4l.2-1.2zm-9.8.1l-1.8-.1v1.4c-.3 1.7-1 5.5-1 8.4 0 2.7.4 5 .8 6.3h1.4V380.4c.2-1 1-3 1.4-4.4l-.8-.6-1.1 3c-.2-1-.2-1.9-.2-2.9a49.6 49.6 0 011.3-9.4zm25.6 9.1v-4.1h3.8v4.1h-3.8zm5.2 2.3v-6.4h3.1v-1.5h-3v-4.6h-1.5v4.6h-3.8V365h-1.5v4.8h-3.7v-4.4H640v4.4h-3v1.5h3V383h1.5v-1.4h12.9V380h-12.9v-9h3.7v6.6h1.5v-1h3.8v1h1.4zm10.4-.4c0 1.5-.4 3.5-3.9 4.8.3.3.8.8 1 1.2 3.9-1.6 4.4-4 4.4-5.9v-1.2h-1.5v1.1zm-1.6-7.2h4.5v2.1h-4.5V370zm0-3.3h4.5v2.1h-4.5v-2.1zm10.6 2.1h-4.6v-2.1h4.6v2.1zm0 3.3h-4.6V370h4.6v2.1zm1.5 1.3v-8h-13.6v8h4c-1.5 1.6-4 2.9-6.2 3.6l1 1.2a16 16 0 007-4.8h2.2c.7 1 1.8 1.9 2.9 2.7h-1.5v6.9h1.5v-6.9c1.3.9 2.7 1.6 4 2l1-1.3a14 14 0 01-6.2-3.4h4zM185.8 117.5h3.7v-8.8h10v8.8h3.7v-21h-3.7v8.7h-10v-8.7h-3.7v21zm26.9.3c2.4 0 4-1 5.2-2.3v2h3.5v-9.4c0-2-.5-3.7-1.7-4.9-1.1-1.1-2.9-1.8-5.3-1.8-2.5 0-4.2.6-6 1.3l1 2.9a11 11 0 014.6-1c2.5 0 3.9 1.2 3.9 3.5v.3c-1.2-.4-2.5-.6-4.3-.6-3.8 0-6.5 1.7-6.5 5v.1c0 3.2 2.6 5 5.6 5zm1-2.6c-1.7 0-3-.9-3-2.4 0-1.7 1.3-2.7 3.6-2.7 1.5 0 2.7.3 3.6.6v1.1c0 2-1.8 3.4-4.2 3.4zm12.3 2.3h3.6V95.6H226v21.9zm8.5 0h3.7V95.6h-3.7v21.9zm16 .4c4.8 0 8.4-3.8 8.4-8.3 0-4.6-3.5-8.3-8.4-8.3a8.3 8.3 0 00-8.5 8.3c0 4.6 3.6 8.3 8.4 8.3zm0-3.2c-2.8 0-4.8-2.3-4.8-5v-.2c0-2.7 1.8-5 4.7-5 2.9 0 4.9 2.3 4.9 5.1s-1.9 5-4.8 5zm27.2 3h3.2l5.2-15.1 5.1 15h3.3l7.2-21.1H298l-5 15.6-5.2-15.7h-3.1l-5.2 15.7-5-15.6h-4l7.3 21.2zm32.7.2c3 0 5-1.2 6.5-3l-2.1-1.9a5.8 5.8 0 01-4.3 1.9c-2.4 0-4.2-1.5-4.6-4h11.6l.1-1c0-4.6-2.5-8.6-7.6-8.6-4.5 0-7.7 3.8-7.7 8.3 0 5 3.5 8.3 8.1 8.3zm-4.5-9.4c.3-2.5 1.9-4.2 4-4.2 2.5 0 3.9 1.8 4.1 4.2h-8.1zm15.6 9h3.6V95.6h-3.6v21.9zm13.6.3c1.4 0 2.4-.3 3.3-.8v-3c-.7.3-1.4.5-2.2.5-1.3 0-2-.5-2-2v-7.7h4.3v-3.1h-4.3v-4.4h-3.6v4.4h-2v3h2v8.4c0 3.5 1.9 4.7 4.5 4.7zm8.3-7h2l1.1-13.3v-1h-4.2v1l1.1 13.3zm-1 6.7h4v-4.1h-4v4.1zM318.5 386.5h4.8c2.4 0 3.9-1 3.9-2.9 0-1.4-.9-2.1-2-2.6.7-.4 1.4-1 1.4-2.3 0-.7-.2-1.3-.7-1.8-.6-.6-1.5-.9-2.7-.9h-4.7v10.5zm6.3-7.5c0 1-.8 1.4-2 1.4h-2.5v-2.8h2.6c1.2 0 1.9.5 1.9 1.4zm.6 4.4c0 1-.8 1.5-2 1.5h-3.1v-3h2.9c1.4 0 2.2.6 2.2 1.5zm7.4 3.3c2.5 0 4.3-1.9 4.3-4.1 0-2.3-1.8-4.2-4.2-4.2a4.1 4.1 0 00-4.3 4.2c0 2.2 1.8 4 4.2 4zm0-1.6c-1.3 0-2.4-1.2-2.4-2.5 0-1.5 1-2.6 2.4-2.6 1.5 0 2.5 1.2 2.5 2.6 0 1.3-1 2.5-2.4 2.5zm6.1 1.4h1.8V382c0-1.2.8-2 1.8-2 1.1 0 1.7.8 1.7 2v4.5h1.8v-5c0-1.9-1-3-2.8-3-1.2 0-2 .6-2.5 1.3v-1.2H339v7.9zm9.4-9.1h2v-1.8h-2v1.8zm-.4 11.5c1.4 0 2.2-.7 2.2-2.3v-8h-1.8v7.9c0 .7-.3 1-.8 1a3 3 0 01-.5 0v1.4h.9zm8.4-2.2a4.1 4.1 0 100-8.3 4.1 4.1 0 00-4.2 4.2c0 2.2 1.8 4 4.2 4zm0-1.6c-1.4 0-2.4-1.2-2.4-2.5 0-1.5 1-2.6 2.4-2.6s2.4 1.2 2.4 2.6c0 1.3-1 2.5-2.4 2.5zm8.8 1.6c1.2 0 2-.7 2.5-1.4v1.2h1.8v-8h-1.8v4.6c0 1.2-.8 1.9-1.8 1.9s-1.7-.7-1.7-2v-4.4h-1.8v5c0 1.9 1 3 2.8 3zm6.6-.2h1.8v-3c0-2.1 1.1-3.1 2.7-3.1h.1v-2c-1.4 0-2.3.8-2.8 2v-1.8h-1.8v7.9zm10.8 0h1.8v-11h-1.8v11zm7.8.2a4 4 0 003.2-1.5l-1-1c-.7.7-1.3 1-2.2 1-1.1 0-2-.7-2.3-2h5.9v-.5c0-2.3-1.3-4.3-3.8-4.3-2.3 0-3.9 1.9-3.9 4.1a4 4 0 004 4.2zM388 382c.2-1.2 1-2.1 2-2.1 1.3 0 2 1 2 2h-4zm12.4 4.5h1.8V379l3.3 5 3.4-5v7.5h1.8V376h-2l-3.1 5-3.2-5h-2v10.5zm16.6.2a4.1 4.1 0 100-8.3 4.1 4.1 0 00-4.2 4.2c0 2.2 1.8 4 4.2 4zm0-1.6c-1.4 0-2.4-1.2-2.4-2.5 0-1.5 1-2.6 2.4-2.6s2.4 1.2 2.4 2.6c0 1.3-.9 2.5-2.4 2.5zm6.1 1.4h1.8V382c0-1.2.7-2 1.8-2 1 0 1.7.8 1.7 2v4.5h1.8v-5c0-1.9-1-3-2.8-3-1.2 0-2 .6-2.5 1.3v-1.2h-1.8v7.9zm12.6.2c1.3 0 2-.7 2.7-1.5v1.3h1.8v-11h-1.8v4.3a3.2 3.2 0 00-2.7-1.4c-2 0-3.7 1.5-3.7 4.1 0 2.7 1.8 4.2 3.7 4.2zm.4-1.6c-1.2 0-2.3-1-2.3-2.5 0-1.7 1-2.6 2.3-2.6 1.2 0 2.3 1 2.3 2.5 0 1.6-1 2.6-2.3 2.6zm10 1.6a4 4 0 003.2-1.5l-1-1c-.7.7-1.3 1-2.2 1-1.2 0-2-.7-2.3-2h5.9v-.5c0-2.3-1.3-4.3-3.8-4.3-2.3 0-3.9 1.9-3.9 4.1a4 4 0 004 4.2zm-2.3-4.7c.2-1.2 1-2.1 2-2.1 1.3 0 2 1 2 2h-4zm8.3 1.2h1l.6-6.7v-.5h-2.1v.5l.5 6.7zm-.5 3.3h2v-2h-2v2zM165.6 177.7c2 0 3.2-.7 4.3-1.9l-1.2-1.2c-.9.9-1.7 1.4-3 1.4-2 0-3.5-1.7-3.5-3.8 0-2 1.5-3.7 3.5-3.7 1.2 0 2.1.5 3 1.3l1.1-1.3c-1-1-2.1-1.7-4-1.7a5.3 5.3 0 00-5.5 5.4c0 3 2.3 5.5 5.3 5.5zm6-9.3h2v-1.8h-2v1.8zm.1 9.1h1.9v-8h-1.9v8zm6.5.2c1.2 0 2-.5 2.6-1.2v1h1.8v-4.7c0-1-.3-1.9-.9-2.4-.6-.6-1.4-1-2.6-1-1.3 0-2.1.3-3 .7l.5 1.4c.7-.3 1.4-.4 2.2-.4 1.3 0 2 .6 2 1.7v.2c-.6-.2-1.2-.4-2.1-.4-2 0-3.3.9-3.3 2.6 0 1.6 1.3 2.5 2.8 2.5zm.5-1.4c-.9 0-1.5-.4-1.5-1.2 0-.8.7-1.3 1.8-1.3a5 5 0 011.8.3v.6c0 1-.9 1.6-2 1.6zm9.8 1.4a4.1 4.1 0 100-8.3 4.1 4.1 0 00-4.2 4.2c0 2.2 1.8 4 4.2 4zm0-1.6c-1.4 0-2.4-1.2-2.4-2.5 0-1.5 1-2.6 2.4-2.6s2.4 1.2 2.4 2.6c0 1.3-.9 2.5-2.4 2.5zm10.8 1.4h1.8V170l3.3 5 3.4-5v7.5h1.8V167h-2l-3.1 5-3.2-5h-2v10.5zm16.6.2a4.1 4.1 0 100-8.3 4.1 4.1 0 00-4.2 4.2c0 2.2 1.8 4 4.2 4zm0-1.6c-1.4 0-2.4-1.2-2.4-2.5 0-1.5 1-2.6 2.4-2.6s2.4 1.2 2.4 2.6c0 1.3-1 2.5-2.4 2.5zm6 1.4h1.9V173c0-1.2.7-2 1.8-2 1 0 1.7.8 1.7 2v4.5h1.8v-5c0-1.9-1-3-2.8-3-1.3 0-2 .6-2.5 1.3v-1.2H222v7.9zm12.6.2c1.3 0 2.2-.7 2.7-1.5v1.3h1.9v-11h-1.9v4.3a3.2 3.2 0 00-2.7-1.4c-1.8 0-3.6 1.5-3.6 4.1 0 2.7 1.8 4.2 3.6 4.2zm.5-1.6c-1.3 0-2.3-1-2.3-2.5 0-1.7 1-2.6 2.3-2.6 1.2 0 2.3 1 2.3 2.5 0 1.6-1.1 2.6-2.3 2.6zm10.1 1.6a4.1 4.1 0 100-8.3 4.1 4.1 0 00-4.2 4.2c0 2.2 1.8 4 4.2 4zm0-1.6c-1.4 0-2.4-1.2-2.4-2.5 0-1.5 1-2.6 2.4-2.6s2.4 1.2 2.4 2.6c0 1.3-.9 2.5-2.4 2.5zm6.7-2h1l.6-6.6v-.5h-2.1v.5l.5 6.7zm-.5 3.4h2v-2h-2v2zM599.8 108.5h2l1-2.5h5l1 2.5h2l-4.6-10.6h-1.7l-4.7 10.6zm3.7-4.2l1.8-4.2 1.8 4.2h-3.6zm8.9 4.2h1.8V104c0-1.2.7-2 1.8-2 1 0 1.7.8 1.7 2v4.5h1.8v-5c0-1.9-1-3-2.8-3-1.3 0-2 .6-2.5 1.3v-4.3h-1.8v11zm13 .2c2.5 0 4.3-1.9 4.3-4.1 0-2.3-1.8-4.2-4.2-4.2a4.1 4.1 0 00-4.3 4.2c0 2.2 1.8 4 4.2 4zm0-1.6c-1.3 0-2.3-1.2-2.3-2.5 0-1.5.9-2.6 2.3-2.6 1.5 0 2.5 1.2 2.5 2.6 0 1.4-1 2.5-2.4 2.5zm6.2-7.7h2v-1.8h-2v1.8zm-.4 11.5c1.4 0 2.3-.7 2.3-2.3v-8h-1.9v7.9c0 .7-.3 1-.8 1a3 3 0 01-.5 0v1.4h.9zm13-2.3c2.2 0 3.8-1.1 3.8-3v-.1c0-1.8-1.2-2.5-3.4-3-2-.6-2.5-1-2.5-1.7 0-.8.6-1.3 1.7-1.3 1 0 2 .4 2.9 1l1-1.3c-1.1-.9-2.3-1.4-3.9-1.4-2 0-3.5 1.3-3.5 3v.1c0 2 1.2 2.6 3.4 3.2 2 .4 2.4.8 2.4 1.6s-.7 1.3-1.8 1.3c-1.3 0-2.4-.5-3.4-1.3l-1 1.3a6.5 6.5 0 004.3 1.7zm8 0h1.6l3.3-8h-2l-2 5.8-2.2-5.8h-2l3.3 8zm12-11.2h-1.4l-1.2 1-1.2-1H659l1.7 2.2h1.7l1.8-2.2zm-2.4 11.3a4 4 0 003.2-1.5l-1-1c-.7.7-1.3 1-2.2 1-1.1 0-2-.7-2.2-2h5.8v-.5c0-2.3-1.3-4.3-3.8-4.3-2.3 0-3.9 1.9-3.9 4.1a4 4 0 004.1 4.2zm-2.3-4.7c.2-1.2 1-2.1 2-2.1 1.3 0 2 1 2.1 2h-4zm10.4 4.6c.7 0 1.2-.1 1.6-.4v-1.5c-.3.2-.7.3-1.1.3-.6 0-1-.3-1-1v-3.9h2.1v-1.5h-2v-2.2h-1.9v2.2h-1v1.5h1v4.2c0 1.8 1 2.3 2.3 2.3zm6.9 0a4 4 0 003.2-1.4l-1-1c-.7.7-1.3 1-2.2 1-1.1 0-2-.7-2.2-2h5.8v-.5c0-2.3-1.3-4.3-3.8-4.3-2.3 0-3.9 1.9-3.9 4.1a4 4 0 004.1 4.2zm-2.3-4.6c.2-1.2 1-2.1 2-2.1 1.3 0 2 1 2.1 2h-4zm8.4 1.2h1l.5-6.7V98h-2.1v.5l.6 6.7zm-.5 3.3h2v-2h-2v2z"/><path fill="#141414" d="M356.4 242h5v-11.8h13.3V242h5v-28h-5v11.6h-13.3V214h-5v28zm39.6.5c3.8 0 6.6-1.6 8.6-4l-2.8-2.5a7.7 7.7 0 01-5.8 2.5c-3 0-5.5-1.9-6-5.3h15.5v-1.4c0-6-3.3-11.4-10-11.4-6.1 0-10.4 5-10.4 11v.1c0 6.5 4.7 11 10.9 11zm-6-12.5c.4-3.3 2.4-5.6 5.4-5.6 3.2 0 5 2.4 5.4 5.6h-10.9zm20.7 12h4.8v-29.2h-4.8V242zm11.4 0h4.9v-29.2H422V242zm21.3.5a11 11 0 0011.3-11v-.1c0-6-4.8-11-11.3-11a11 11 0 00-11.3 11v.2c0 6 4.8 10.9 11.3 10.9zm0-4.3c-3.7 0-6.4-3-6.4-6.7v-.1c0-3.7 2.5-6.7 6.4-6.7 3.8 0 6.4 3 6.4 6.8 0 3.7-2.4 6.7-6.4 6.7zm33.3 4h4.3l4.8-14.5 4.7 14.5h4.3l7-21.3h-5l-4.2 14.5-4.7-14.6h-4.2l-4.7 14.6-4.2-14.5h-5l6.9 21.3zm38.4.3a11 11 0 0011.3-11v-.1c0-6-4.8-11-11.3-11a11 11 0 00-11.2 11v.2c0 6 4.7 10.9 11.2 10.9zm0-4.3c-3.7 0-6.4-3-6.4-6.7v-.1c0-3.7 2.5-6.7 6.4-6.7 3.8 0 6.4 3 6.4 6.8 0 3.7-2.4 6.7-6.4 6.7zm16.2 3.8h4.9v-8c0-5.6 3-8.4 7.2-8.4h.2v-5.1c-3.7-.2-6.1 2-7.4 5.1V221h-4.9V242zm16.8 0h4.9v-29.2H548V242zm20 .4c3.3 0 5.5-1.7 7.1-4v3.6h4.8v-29.2h-4.8v11.4a8.6 8.6 0 00-7.2-3.8c-5 0-9.8 4-9.8 11s4.8 11 9.8 11zm1-4.2c-3.2 0-6-2.6-6-6.7v-.1c0-4.2 2.7-6.8 6-6.8s6.2 2.7 6.2 6.8-2.9 6.8-6.1 6.8zm18.7-5h2.7l1.5-17.8V214h-5.7v1.4l1.5 17.7zm-1.3 8.8h5.3v-5.5h-5.3v5.5z"/></svg>